<?xml version="1.0" standalone="no"?>
<!DOCTYPE svg PUBLIC "-//W3C//DTD SVG 20010904//EN"
 "http://www.w3.org/TR/2001/REC-SVG-20010904/DTD/svg10.dtd">
<svg version="1.0" xmlns="http://www.w3.org/2000/svg"
 width="160.000000pt" height="210.000000pt" viewBox="0 0 160.000000 210.000000"
 preserveAspectRatio="xMidYMid meet">
<metadata>
Created by potrace 1.15, written by Peter Selinger 2001-2017
</metadata>
<g transform="translate(0.000000,210.000000) scale(0.100000,-0.100000)"
fill="#000000" stroke="none">
<path d="M746 1997 c-163 -273 -480 -681 -690 -886 l-55 -54 92 -97 c204 -212
451 -531 617 -795 47 -74 88 -135 92 -135 3 0 19 21 34 48 156 266 423 617
663 872 l98 104 -112 121 c-138 146 -261 293 -372 442 -86 117 -243 350 -283
422 -13 22 -26 41 -29 41 -3 -1 -28 -38 -55 -83z"/>
</g>
</svg>
