<?xml version="1.0" standalone="no"?>
<!DOCTYPE svg PUBLIC "-//W3C//DTD SVG 20010904//EN"
 "http://www.w3.org/TR/2001/REC-SVG-20010904/DTD/svg10.dtd">
<svg version="1.0" xmlns="http://www.w3.org/2000/svg"
 width="192.000000pt" height="210.000000pt" viewBox="0 0 192.000000 210.000000"
 preserveAspectRatio="xMidYMid meet">
<metadata>
Created by potrace 1.15, written by Peter Selinger 2001-2017
</metadata>
<g transform="translate(0.000000,210.000000) scale(0.100000,-0.100000)"
fill="#000000" stroke="none">
<path d="M875 1969 c-83 -108 -298 -329 -493 -507 -301 -276 -428 -558 -363
-805 26 -98 60 -157 136 -233 103 -104 239 -149 374 -125 145 26 254 104 308
220 15 33 31 61 36 61 4 0 7 -33 7 -73 0 -148 -54 -279 -161 -392 -38 -40 -69
-80 -69 -89 0 -14 29 -16 304 -16 211 0 307 3 312 11 3 6 -20 38 -54 73 -73
73 -126 158 -152 243 -22 70 -38 243 -24 243 6 0 22 -25 37 -56 38 -78 108
-149 181 -184 186 -88 376 -52 517 98 99 105 139 203 139 342 0 105 -22 197
-70 292 -82 165 -149 240 -510 577 -104 98 -212 219 -345 385 l-30 38 -80
-103z"/>
</g>
</svg>
