<?xml version="1.0" standalone="no"?>
<!DOCTYPE svg PUBLIC "-//W3C//DTD SVG 20010904//EN"
 "http://www.w3.org/TR/2001/REC-SVG-20010904/DTD/svg10.dtd">
<svg version="1.0" xmlns="http://www.w3.org/2000/svg"
 width="201.000000pt" height="207.000000pt" viewBox="0 0 201.000000 207.000000"
 preserveAspectRatio="xMidYMid meet">
<metadata>
Created by potrace 1.15, written by Peter Selinger 2001-2017
</metadata>
<g transform="translate(0.000000,207.000000) scale(0.100000,-0.100000)"
fill="#000000" stroke="none">
<path d="M898 2054 c-91 -22 -177 -71 -243 -138 -99 -102 -145 -212 -145 -349
0 -119 33 -218 105 -312 l37 -48 -29 7 c-72 18 -190 18 -249 1 -263 -75 -415
-333 -349 -590 23 -87 60 -147 136 -220 152 -147 350 -183 535 -96 83 39 183
136 209 203 10 27 22 48 26 48 14 0 10 -140 -6 -200 -27 -100 -80 -194 -152
-263 -102 -100 -109 -97 241 -97 194 0 297 4 301 10 4 6 -24 43 -62 83 -105
112 -152 217 -167 377 -9 94 5 107 40 36 66 -136 247 -246 404 -246 64 0 179
32 237 65 82 49 160 131 201 214 35 71 37 81 41 189 3 98 0 122 -19 175 -59
163 -195 284 -358 318 -58 12 -200 8 -237 -7 -15 -6 -11 4 18 43 154 209 138
470 -40 654 -129 134 -301 186 -475 143z"/>
</g>
</svg>
