<?xml version="1.0" standalone="no"?>
<!DOCTYPE svg PUBLIC "-//W3C//DTD SVG 20010904//EN"
 "http://www.w3.org/TR/2001/REC-SVG-20010904/DTD/svg10.dtd">
<svg version="1.0" xmlns="http://www.w3.org/2000/svg"
 width="210.000000pt" height="214.000000pt" viewBox="0 0 210.000000 214.000000"
 preserveAspectRatio="xMidYMid meet">
<metadata>
Created by potrace 1.15, written by Peter Selinger 2001-2017
</metadata>
<g transform="translate(0.000000,214.000000) scale(0.100000,-0.100000)"
fill="#000000" stroke="none">
<path d="M405 2086 c-164 -52 -289 -181 -351 -361 -24 -70 -28 -96 -28 -205
-1 -133 7 -174 56 -294 62 -152 126 -229 569 -681 144 -148 299 -337 384 -467
9 -16 20 -28 24 -28 4 0 35 40 69 90 121 174 229 298 487 560 143 146 282 294
309 330 61 82 117 194 145 288 89 297 -33 614 -285 738 -74 37 -83 39 -191 43
-93 3 -124 -1 -181 -18 -81 -24 -177 -85 -228 -144 -41 -48 -99 -149 -109
-189 -10 -38 -18 -35 -34 10 -24 67 -79 147 -145 210 -99 96 -198 132 -356
131 -52 0 -113 -6 -135 -13z"/>
</g>
</svg>
